<svg xmlns="http://www.w3.org/2000/svg" width="23" height="24" viewBox="0 0 23 24">
    <g fill="none" fill-rule="evenodd">
        <path fill="#B6B6B6" d="M0 .5h23v23H0z"/>
        <path fill="#FFF" d="M17.745 19.462a1.624 1.624 0 0 0 1.235-1.258c.013-.067.022-.134.033-.201V5.997c-.01-.066-.02-.132-.032-.197a1.623 1.623 0 0 0-1.37-1.288c-.028-.003-.055-.01-.083-.014H5.472c-.073.013-.146.022-.217.039A1.62 1.62 0 0 0 4 5.897c-.003.028-.01.056-.014.084V18.02c.014.076.024.153.042.229.147.65.702 1.153 1.363 1.238l.097.015H17.51c.078-.013.157-.024.234-.04zm-12.133-8.84v6.662c0 .32.278.594.597.594h10.579a.607.607 0 0 0 .598-.596v-6.7h-1.434a4.685 4.685 0 0 1-.463 3.844 4.677 4.677 0 0 1-6.268 1.645 4.56 4.56 0 0 1-1.814-1.825c-.636-1.168-.737-2.393-.364-3.665h-1.43v.041zm2.843 1.332a3.045 3.045 0 0 0 6.088.113 3.045 3.045 0 1 0-6.088-.113zm8.354-3.608a.602.602 0 0 0 .577-.599v-1.42c0-.34-.27-.61-.609-.611h-1.42a.608.608 0 0 0-.609.611c0 .47-.001.94.002 1.41 0 .07.014.142.036.208.085.25.314.404.595.405h.685c.247-.003.495.002.743-.004z"/>
    </g>
</svg>
