<svg xmlns="http://www.w3.org/2000/svg" width="23" height="24" viewBox="0 0 23 24">
    <g fill="none" fill-rule="evenodd">
        <path fill="#B6B6B6" d="M0 .5h23v23H0z"/>
        <path fill="#FFF" d="M4.123 12c0-.527.003-.939.008-1.235.006-.296.029-.671.07-1.124a9.1 9.1 0 0 1 .185-1.214c.088-.4.278-.739.569-1.013.29-.274.63-.434 1.02-.477 1.219-.138 3.06-.206 5.525-.206 2.465 0 4.306.068 5.525.206.39.043.73.203 1.025.477.293.274.484.612.572 1.013.077.357.136.761.177 1.214.041.453.064.828.07 1.124.005.296.008.708.008 1.235 0 .527-.003.939-.008 1.235a16.15 16.15 0 0 1-.07 1.124 9.1 9.1 0 0 1-.185 1.214c-.088.4-.278.739-.569 1.013-.29.274-.63.434-1.02.477-1.219.138-3.06.206-5.525.206-2.465 0-4.306-.068-5.525-.206a1.755 1.755 0 0 1-1.025-.477 1.914 1.914 0 0 1-.572-1.013 10.191 10.191 0 0 1-.177-1.214 16.15 16.15 0 0 1-.07-1.124A70.951 70.951 0 0 1 4.123 12zm5.27 2.635c0 .208.09.362.271.46a.57.57 0 0 0 .255.067c.11 0 .203-.028.28-.083l4.216-2.634a.474.474 0 0 0 .247-.445.474.474 0 0 0-.247-.445l-4.216-2.634a.496.496 0 0 0-.535-.017.49.49 0 0 0-.272.461v5.27z"/>
    </g>
</svg>
